# xmcd CD database file
#
# Track frame offsets:
#	150
#	47687
#	71366
#	94497
#	108703
#	131205
#	152920
#	172366
#	182550
#	207354
#	233850
#	265165
#
# Disc length: 4070 seconds
#
# Revision: 0
# Processed by: cddbd v1.5.2PL0 Copyright (c) Steve Scherf et al.
# Submitted via: CDex 1.51
#
DISCID=b60fe40c
DTITLE=Karen Asatrian and Armenian Spirit - Arahet
DYEAR=2010
DGENRE=Jazz
TTITLE0=Ararat
TTITLE1=River Song
TTITLE2=Oriental Dance
TTITLE3=Longa Nakris
TTITLE4=Legend
TTITLE5=Cho Cho San
TTITLE6=Lullaby for Erik
TTITLE7=Surb Tiramayr
TTITLE8=6 Soldiers
TTITLE9=Pathway (Arahet)
TTITLE10=Sasna Mher
TTITLE11=Gamanayin Etyud
EXTD=YEAR: 2010
EXTT0=
EXTT1=
EXTT2=
EXTT3=
EXTT4=
EXTT5=
EXTT6=
EXTT7=
EXTT8=
EXTT9=
EXTT10=
EXTT11=
PLAYORDER=
